<svg xmlns="http://www.w3.org/2000/svg" width="59.738" height="111.105"><path fill="#e76f00" d="M57.221 87.614h-.418v-.239h1.127v.234h-.416v1.168h-.293Zm2.248.061h-.007l-.415 1.108h-.19l-.412-1.108v1.108h-.276v-1.4h.406l.382.993.381-.993h.4v1.4h-.269Z" data-name="Path 238"/><path fill="#5382a1" d="M19.75 58.936s-2.912 1.694 2.073 2.267a43.609 43.609 0 0 0 15.78-.669 27.457 27.457 0 0 0 4.193 2.047c-14.919 6.394-33.764-.37-22.046-3.645m-1.823-8.348s-3.266 2.418 1.722 2.934a61.561 61.561 0 0 0 20.361-.978 9.038 9.038 0 0 0 3.137 1.912c-18.038 5.274-38.128.416-25.22-3.868" data-name="Path 239"/><path fill="#e76f00" d="M33.295 36.438c3.676 4.232-.966 8.041-.966 8.041s9.333-4.818 5.047-10.852c-4-5.627-7.074-8.423 9.547-18.062 0 0-26.089 6.516-13.628 20.873" data-name="Path 240"/><path fill="#5382a1" d="M53.027 65.108s2.155 1.776-2.373 3.149c-8.611 2.609-35.841 3.4-43.4.1-2.719-1.183 2.38-2.825 3.984-3.169a10.343 10.343 0 0 1 2.629-.3c-3.024-2.13-19.546 4.183-8.392 5.991 30.417 4.933 55.448-2.221 47.558-5.78m-31.876-23.16s-13.851 3.29-4.9 4.484c3.777.506 11.307.391 18.32-.2 5.732-.484 11.488-1.511 11.488-1.511a24.326 24.326 0 0 0-3.483 1.864c-14.065 3.7-41.236 1.978-33.414-1.806a26.207 26.207 0 0 1 11.994-2.835m24.832 13.901c14.3-7.43 7.687-14.57 3.073-13.608a10.7 10.7 0 0 0-1.635.439 2.607 2.607 0 0 1 1.222-.942c9.128-3.209 16.149 9.465-2.947 14.485a1.242 1.242 0 0 0 .288-.375" data-name="Path 241"/><path fill="#e76f00" d="M37.377.001s7.918 7.921-7.51 20.1c-12.372 9.77-2.821 15.341-.005 21.707-7.222-6.516-12.521-12.252-8.966-17.59C26.115 16.382 40.572 12.582 37.377 0" data-name="Path 242"/><path fill="#5382a1" d="M22.556 75.968c13.724.879 34.8-.487 35.3-6.981 0 0-.959 2.462-11.342 4.417a112.843 112.843 0 0 1-34.73.534s1.754 1.452 10.774 2.03" data-name="Path 243"/><path fill="#e76f00" d="M20.307 100.782a6.229 6.229 0 0 1-3.889 1.753 2.48 2.48 0 0 1-2.7-2.735c0-1.822 1.014-3.154 5.082-3.154h1.505v4.136m3.572 4.031V92.336c0-3.187-1.818-5.29-6.2-5.29a16.334 16.334 0 0 0-6.622 1.438l.526 2.209a15.39 15.39 0 0 1 5.113-1.017c2.525 0 3.611 1.017 3.611 3.118v1.577h-1.26c-6.134 0-8.9 2.381-8.9 5.955 0 3.085 1.824 4.838 5.257 4.838a7.929 7.929 0 0 0 5.395-2.245l.28 1.894h2.8Zm11.922 0h-4.453l-5.362-17.455h3.889L33.2 98.08l.74 3.225a67.04 67.04 0 0 0 3.471-13.947h3.785a70.874 70.874 0 0 1-5.395 17.451m17.093-4.031A6.246 6.246 0 0 1 49 102.531a2.481 2.481 0 0 1-2.7-2.735c0-1.822 1.016-3.154 5.083-3.154h1.508v4.136m3.572 4.031V92.336c0-3.187-1.822-5.29-6.2-5.29a16.333 16.333 0 0 0-6.623 1.438l.525 2.209a15.414 15.414 0 0 1 5.116-1.017c2.523 0 3.611 1.017 3.611 3.118v1.577h-1.26c-6.136 0-8.9 2.381-8.9 5.955 0 3.085 1.822 4.838 5.255 4.838a7.939 7.939 0 0 0 5.4-2.245l.281 1.894h2.8Zm-50.238 2.963a9.386 9.386 0 0 1-4.464 3.329l-1.764-2.076a7.4 7.4 0 0 0 3.092-2.9c.472-.941.668-2.154.668-5.054V81.158h3.8v19.65c0 3.877-.31 5.443-1.328 6.971" data-name="Path 244"/></svg>